<svg xmlns="http://www.w3.org/2000/svg" width="48" height="48" id="c"><path d="m42.91 10.92-17-9.84a3.77 3.77 0 0 0-3.76 0l-17 9.84a3.75 3.75 0 0 0-1.87 3.25v19.66a3.75 3.75 0 0 0 1.87 3.25l17 9.84a3.77 3.77 0 0 0 3.76 0l17-9.84a3.75 3.75 0 0 0 1.87-3.25V14.17a3.75 3.75 0 0 0-1.87-3.25ZM23.7 37.15c-8.55 0-12.94-5.44-12.94-13s5-13.38 13.3-13.38c9.26 0 11.84 6.1 12 9h-7.44c-.46-2.06-1.73-3.49-4.7-3.49-3.48 0-5.45 2.8-5.45 7.69 0 5.37 2.09 7.82 5.42 7.82a4.62 4.62 0 0 0 4.69-3.32h7.47c-.95 4.15-4.17 8.68-12.35 8.68Zm17.42-14h-1l-.3 1.23h.81v1.11h-1.06l-.43 1.79h-1l.44-1.79h-1.11L37 27.24h-1l.44-1.79h-.78v-1.11h1.06l.28-1.23h-.85V22h1.12l.41-1.65h1L38.31 22h1.11l.4-1.65h1L40.41 22h.72Z"></path><path d="M37.74 24.34h1.1l.3-1.23h-1.1l-.3 1.23z"></path></svg>