<svg xmlns="http://www.w3.org/2000/svg" enable-background="new 0 0 24 24" viewBox="0 0 24 24" id="vim"><path d="M23.973,11.986l-4.318-4.318l4.303-4.414V1.461l-0.649-0.648h-8.198l-0.66,0.605v1.045l-2.436-2.436V0L12,0.014L11.986,0v0.027l-1.29,1.291l-0.538-0.539H2.035L1.397,1.471v1.885l0.616,0.616h0.72v5.31l-2.706,2.705H0L0.014,12L0,12.014h0.027l2.706,2.706v6.467L3.64,21.71h2.322l1.857-1.904l4.166,4.166V24L12,23.986L12.014,24v-0.028l2.51-2.509h0.485c0.111,0,0.211-0.07,0.25-0.179l0.146-0.426c0.028-0.084,0.012-0.172-0.037-0.239l1.462-1.462l-0.612,1.962c-0.043,0.141,0.036,0.289,0.177,0.332c0.025,0.008,0.052,0.012,0.078,0.012h1.824c0.106-0.001,0.201-0.064,0.243-0.163l0.165-0.394c0.025-0.065,0.024-0.138-0.004-0.203c-0.027-0.065-0.08-0.116-0.146-0.142c-0.029-0.012-0.062-0.019-0.097-0.02h-0.075l0.84-2.644h1.232l-1.016,3.221c-0.043,0.141,0.036,0.289,0.176,0.332c0.025,0.008,0.052,0.012,0.079,0.012h2.002c0.11,0,0.207-0.066,0.248-0.17l0.164-0.428c0.051-0.138-0.021-0.29-0.158-0.341c-0.029-0.011-0.06-0.017-0.091-0.017h-0.145l1.131-3.673c0.027-0.082,0.012-0.173-0.039-0.24l-0.375-0.504l-0.003-0.005c-0.051-0.064-0.127-0.102-0.209-0.102h-1.436c-0.071,0-0.141,0.03-0.19,0.081l-0.4,0.439h-0.624l-0.042-0.046l4.445-4.445H24L23.986,12L24,11.986H23.973z M11.309,20.881h0.623l-0.079,0.258H9.838l1.579-4.509h-0.501l0.297-0.304h1.659L11.309,20.881z M12.22,14.922l-0.181-0.181l0.311-0.871l0.288-0.247h0.895l0.15,0.151l-0.269,0.922l-0.225,0.226H12.22z M20.358,16.877l0.474-0.519h1.334l0.309,0.415L21.21,20.88h0.493l-0.08,0.209H19.84l1.124-3.564h-2.015l-1.077,3.391h0.424l-0.073,0.174h-1.605l1.107-3.548h-2.096l-1.062,3.339h0.436l-0.072,0.209H13.27l1.514-4.46h-0.586l0.091-0.271h1.65l0.519,0.537h0.906l0.491-0.554h1.061l0.489,0.535H20.358z M12.979,13.25h-0.373c-0.015-0.001-0.028,0-0.042,0.001l-0.02,0.003c-0.045,0.01-0.086,0.03-0.119,0.06l-0.343,0.295l-0.004,0.003c-0.033,0.031-0.059,0.069-0.073,0.111l-0.296,0.83L5.59,20.829H3.877l-0.262-0.15V3.091H2.379l-0.1-0.1V1.815l0.143-0.154h7.371l0.213,0.214v1.108L9.864,3.156H8.785v8.688l8.807-8.688h-2.086l-0.175-0.188V1.805l0.121-0.111h7.49l0.132,0.133v1.07L12.979,13.25z"></path></svg>