<svg id="SvgjsSvg1033" width="288" height="288" xmlns="http://www.w3.org/2000/svg" version="1.1" xmlns:xlink="http://www.w3.org/1999/xlink" xmlns:svgjs="http://svgjs.com/svgjs"><circle id="SvgjsCircle1061" r="144" cx="144" cy="144" transform="matrix(1,0,0,1,0,0)" fill="#45fbcf"></circle><defs id="SvgjsDefs1034"></defs><g id="SvgjsG1035" transform="matrix(0.8900000000000001,0,0,0.8900000000000001,15.852845935821506,15.830243072509745)"><svg xmlns="http://www.w3.org/2000/svg" viewBox="0 0 160 160" width="288" height="288"><g fill="none" fill-rule="evenodd" transform="translate(-880 -159)"><g fill="#000000" transform="translate(880 159)" class="color000 svgShape"><path d="M47.518193,47.5580759 C46.759493,43.9779759 46.670793,39.9349759 47.264493,35.4299759 C48.024493,29.6609759 49.904693,23.1199759 52.914793,15.8089759 C53.017193,15.5609759 53.215493,15.3639759 53.464893,15.2629759 C53.714293,15.1619759 53.993693,15.1659759 54.240193,15.2739759 C61.402493,18.4059759 67.247593,21.7649759 71.780293,25.3409759 C75.303493,28.1199759 78.039993,31.0359759 79.998593,34.0809759 C81.993793,31.0129759 84.789693,28.0919759 88.395393,25.3259759 C93.011893,21.7839759 98.966593,18.4879759 106.264393,15.4469759 C106.512693,15.3439759 106.792193,15.3449759 107.039693,15.4499759 C107.287293,15.5549759 107.482193,15.7559759 107.580193,16.0059759 C110.429793,23.2849759 112.188193,29.7929759 112.864693,35.5269759 C113.390593,39.9829759 113.263793,43.9799759 112.495693,47.5180759 C116.075993,46.7595759 120.118993,46.6711759 124.623993,47.2648759 C130.392993,48.0250759 136.933993,49.9052759 144.243993,52.9152759 C144.492993,53.0176759 144.689993,53.2159759 144.790993,53.4653759 C144.890993,53.7147759 144.886993,53.9942759 144.779993,54.2406759 C141.646993,61.4030759 138.288993,67.2481759 134.712993,71.7808759 C131.933993,75.3039759 129.017993,78.0404759 125.972993,79.9990759 C129.040993,81.9939759 131.961993,84.7899759 134.727993,88.3958759 C138.268993,93.0122759 141.564993,98.9670759 144.605993,106.264876 C144.709993,106.513176 144.708993,106.792676 144.603993,107.040276 C144.498993,107.287876 144.297993,107.482676 144.047993,107.580676 C136.767993,110.430276 130.260993,112.188676 124.526993,112.865276 C120.070993,113.391176 116.073993,113.264376 112.535693,112.496276 C113.293993,116.076876 113.382393,120.119476 112.788693,124.624676 C112.028493,130.393376 110.148293,136.934276 107.138293,144.244676 C107.035893,144.493376 106.837593,144.690376 106.588293,144.791176 C106.338893,144.891876 106.059393,144.887976 105.812993,144.780176 C98.650793,141.647976 92.805893,138.289676 88.273193,134.713876 C84.750193,131.934576 82.013693,129.018776 80.054893,125.973776 C78.059493,129.041676 75.263393,131.962776 71.657693,134.728776 C67.041093,138.270176 61.086493,141.565876 53.788793,144.606776 C53.540493,144.710176 53.260993,144.709276 53.013393,144.604176 C52.765793,144.499076 52.570993,144.298676 52.472893,144.048176 C49.616393,136.751176 47.856393,130.229476 47.183493,124.485676 C46.660693,120.023776 46.792993,116.023276 47.568793,112.483876 C44.029093,113.260176 40.028993,113.392676 35.567393,112.869976 C29.823893,112.197176 23.302293,110.437276 16.005493,107.580676 C15.754993,107.482676 15.554593,107.287876 15.449493,107.040276 C15.344393,106.792676 15.343493,106.513176 15.446893,106.264876 C18.480793,98.9840759 21.768293,93.0399759 25.300393,88.4278759 C28.060693,84.8236759 30.975593,82.0261759 34.036893,80.0264759 C30.975593,78.0272759 28.060593,75.2299759 25.300193,71.6257759 C21.768093,67.0138759 18.480693,61.0699759 15.446893,53.7892759 C15.343493,53.5409759 15.344393,53.2614759 15.449493,53.0138759 C15.554593,52.7662759 15.754993,52.5714759 16.005493,52.4734759 C23.284893,49.6237759 29.792793,47.8653759 35.526493,47.1888759 C39.983193,46.6629759 43.980093,46.7898759 47.518193,47.5580759 Z M54.377693,17.5219759 C51.667893,24.2639759 49.954993,30.3199759 49.247293,35.6909759 C48.601093,40.5959759 48.794193,44.9186759 49.846693,48.6591759 C49.944793,49.0080759 49.846493,49.3827759 49.589693,49.6385759 C49.332893,49.8943759 48.957793,49.9911759 48.609293,49.8915759 C44.906893,48.8338759 40.623793,48.6012759 35.760893,49.1750759 C30.424393,49.8047759 24.402193,51.4043759 17.692493,53.9659759 C20.536893,60.6332759 23.599593,66.1159759 26.887993,70.4096759 C29.889593,74.3288759 33.072493,77.2490759 36.449793,79.1554759 C36.763893,79.3328759 36.958193,79.6655759 36.958193,80.0262759 C36.958193,80.3869759 36.763993,80.7197759 36.449893,80.8970759 C33.072593,82.8041759 29.889793,85.7246759 26.888293,89.6439759 C23.599793,93.9378759 20.536893,99.4207759 17.692493,106.088176 C24.418793,108.656176 30.454093,110.257376 35.800093,110.883576 C40.674193,111.454576 44.964793,111.214276 48.670793,110.143476 C49.020593,110.042376 49.397793,110.139476 49.655393,110.396976 C49.912893,110.654476 50.010093,111.031676 49.909093,111.381576 C48.838893,115.088176 48.598793,119.378976 49.169893,124.252976 C49.796193,129.599276 51.397393,135.634676 53.965493,142.361176 C60.648893,139.509876 66.141993,136.439276 70.440393,133.141876 C74.365593,130.130876 77.286093,126.937576 79.187193,123.548776 C79.364493,123.232776 79.698893,123.037376 80.061393,123.038076 C80.423793,123.038776 80.757393,123.235576 80.933393,123.552376 C82.803593,126.918076 85.667793,130.111076 89.511993,133.143676 C93.730593,136.471776 99.119893,139.598876 105.675393,142.531876 C108.385193,135.789976 110.098093,129.734476 110.805893,124.363376 C111.452193,119.458976 111.259293,115.135876 110.207393,111.395076 C110.109293,111.046176 110.207693,110.671576 110.464393,110.415876 C110.721193,110.160076 111.096293,110.063276 111.444793,110.162876 C115.147093,111.220376 119.429993,111.452876 124.292993,110.879076 C129.628993,110.249276 135.650993,108.649676 142.360993,106.088176 C139.508993,99.4045759 136.438993,93.9114759 133.140993,89.6131759 C130.129993,85.6878759 126.936993,82.7675759 123.547993,80.8669759 C123.231993,80.6896759 123.035993,80.3552759 123.036993,79.9927759 C123.037993,79.6303759 123.233993,79.2966759 123.550993,79.1206759 C126.916993,77.2505759 130.109993,74.3863759 133.142993,70.5420759 C136.470993,66.3233759 139.597993,60.9339759 142.530993,54.3781759 C135.788993,51.6684759 129.733993,49.9555759 124.362993,49.2477759 C119.457993,48.6013759 115.135093,48.7942759 111.394593,49.8463759 C111.045693,49.9444759 110.670993,49.8461759 110.415293,49.5893759 C110.159493,49.3325759 110.062793,48.9575759 110.162293,48.6090759 C111.219893,44.9066759 111.452293,40.6239759 110.878493,35.7609759 C110.248793,30.4249759 108.649193,24.4019759 106.087593,17.6929759 C99.404193,20.5439759 93.911093,23.6149759 89.612693,26.9129759 C85.687693,29.9239759 82.767293,33.1169759 80.866493,36.5059759 C80.689193,36.8219759 80.354693,37.0179759 79.992293,37.0169759 C79.629793,37.0159759 79.296193,36.8189759 79.120093,36.5029759 C77.250093,33.1369759 74.385893,29.9439759 70.541593,26.9109759 C66.322893,23.5829759 60.933493,20.4549759 54.377693,17.5219759 Z"></path><path d="M80,56 C93.254834,56 104,66.745166 104,80 C104,93.254834 93.254834,104 80,104 C66.745166,104 56,93.254834 56,80 C56,66.745166 66.745166,56 80,56 Z M80,58 C67.8497355,58 58,67.8497355 58,80 C58,92.1502645 67.8497355,102 80,102 C92.1502645,102 102,92.1502645 102,80 C102,67.8497355 92.1502645,58 80,58 Z"></path><path d="M110.005,6.187 C110.268,6.054 110.576,6.043 110.848,6.159 C111.119,6.274 111.326,6.503 111.412,6.784 C115.07,18.638 117.427,28.666 118.488,36.867 C119.673,46.029 119.229,52.954 117.237,57.647 C114.339,64.4756 109.208,69.1059 103.154,71.338 C102.617273,71.5359048 102.073224,71.7149353 101.522762,71.8749284 C101.285048,71.243096 101.019591,70.6249774 100.728558,70.021511 C101.314366,69.8582277 101.892636,69.6714493 102.462,69.4615 C108.027,67.4098 112.732,63.142 115.396,56.866 C117.288,52.408 117.63,45.826 116.504,37.123 C115.489,29.276 113.269,19.739 109.85,8.51 C99.396,13.851 90.9937,18.879 84.6438,23.599 C77.6014,28.835 73.1041,33.653 71.2122,38.11 C68.5478,44.387 68.7465,50.736 71.136,56.164 C71.463825,56.9086852 71.832728,57.6359517 72.2409064,58.3432899 C71.605201,58.5693894 70.982032,58.8245253 70.37323,59.1054861 C69.9823707,58.4103756 69.6259006,57.6977575 69.3055,56.97 C66.7059,51.065 66.4726,44.158 69.3711,37.329 C71.363,32.636 76.0361,27.506 83.4506,21.994 C90.087,17.061 98.937,11.79 110.005,6.187 Z"></path><path d="M102.608,42.331 C107.335,40.422 114.267,40.098 123.407,41.444 C131.588,42.648 141.574,45.179 153.362,49.043 C153.642,49.135 153.867,49.346 153.977,49.619 C154.088,49.892 154.072,50.2 153.934,50.461 C148.139,61.429 142.714,70.1859 137.666,76.7352 C132.025,84.0524 126.814,88.6352 122.088,90.5449 C115.21,93.3238 108.307,92.97 102.449,90.2677 C101.940097,90.033016 101.439038,89.7805568 100.946536,89.5108189 C101.224907,88.9010525 101.476127,88.2776485 101.70016,87.6414286 C102.218201,87.9329752 102.74728,88.2031251 103.286,88.4516 C108.672,90.9355 115.016,91.2449 121.338,88.6905 C125.828,86.8766 130.724,82.4641 136.082,75.5141 C140.912,69.2476 146.086,60.934 151.609,50.576 C140.441,46.96 130.944,44.575 123.116,43.422 C114.434,42.145 107.847,42.372 103.357,44.186 C97.035,46.74 92.6861,51.37 90.5376,56.898 C90.2475949,57.6440952 89.9976299,58.4063963 89.7881814,59.1819974 C89.1833774,58.8958543 88.5629408,58.6361019 87.9294277,58.4034289 C88.1413029,57.646699 88.3898003,56.9026793 88.6734,56.173 C91.0109,50.159 95.7301,45.11 102.608,42.331 Z"></path><path d="M102.932,69.305 C108.837,66.7054 115.744,66.4721 122.573,69.3706 C127.266,71.3625 132.396,76.0356 137.908,83.4501 C142.841,90.0864 148.112,98.937 153.715,110.0047 C153.848,110.2676 153.859,110.5758 153.743,110.8471 C153.628,111.1183 153.399,111.325 153.118,111.4119 C141.264,115.0696 131.236,117.4262 123.035,118.4873 C113.873,119.6729 106.948,119.2288 102.255,117.2369 C95.4264,114.3383 90.7961,109.2076 88.564,103.1539 C88.3701757,102.628239 88.1944554,102.095552 88.0369924,101.556694 C88.6696378,101.320762 89.2883022,101.058095 89.892417,100.769847 C90.0525269,101.341366 90.2354639,101.90593 90.4405,102.462 C92.4922,108.0265 96.76,112.7316 103.036,115.3959 C107.494,117.2878 114.076,117.6299 122.779,116.5038 C130.626,115.4885 140.163,113.2687 151.392,109.849 C146.051,99.3956 141.023,90.9932 136.303,84.6433 C131.067,77.6009 126.249,73.1036 121.792,71.2116 C115.515,68.5473 109.166,68.7459 103.738,71.1355 C103.021727,71.4508173 102.321569,71.8041378 101.639759,72.1938577 C101.412459,71.5590801 101.156129,70.9368281 100.874029,70.3289657 C101.545041,69.9552117 102.231507,69.6133971 102.932,69.305 Z"></path><path d="M101.588271,87.9530839 C102.313708,88.16035 103.027972,88.4004244 103.729,88.6729 C109.743,91.0103 114.792,95.7295 117.571,102.6076 C119.48,107.3343 119.804,114.2661 118.458,123.4066 C117.254,131.5877 114.723,141.573 110.859,153.3611 C110.767,153.6411 110.556,153.8664 110.283,153.9768 C110.01,154.0872 109.702,154.0714 109.441,153.9337 C98.473,148.1383 89.7161,142.7138 83.1668,137.6652 C75.8497,132.0247 71.2668,126.8138 69.3571,122.0872 C66.5782,115.2091 66.932,108.3069 69.6343,102.448 C69.8744981,101.927211 70.1333164,101.41463 70.4102227,100.911023 C71.0184121,101.190914 71.6409484,101.444554 72.2763733,101.671039 C71.9791553,102.197961 71.7035298,102.736778 71.4504,103.2856 C68.9665,108.6711 68.6571,115.0157 71.2115,121.3379 C73.0254,125.8274 77.4379,130.7237 84.3879,136.0812 C90.6544,140.9119 98.968,146.0859 109.326,151.6083 C112.942,140.4401 115.327,130.9433 116.48,123.1153 C117.757,114.4336 117.53,107.8463 115.716,103.3568 C113.162,97.0346 108.532,92.6856 103.004,90.537 C102.285739,90.2578141 101.55246,90.0157382 100.806753,89.8111968 C101.043703,89.3130626 101.261852,88.8045759 101.461821,88.2870436 Z"></path><path d="M59.2182028,89.8673317 L59.189687,89.8753786 C58.5982585,90.0398627 58.0145949,90.2281333 57.44,90.44 C51.8755,92.4917 47.1704,96.7592 44.5061,103.0359 C42.6142,107.4931 42.2721,114.0754 43.3982,122.7781 C44.4135,130.625 46.6333,140.162 50.053,151.3916 C60.5064,146.0508 68.9088,141.0227 75.2587,136.3021 C82.3011,131.0667 86.7984,126.2482 88.6904,121.791 C91.3547,115.5143 91.1561,109.1653 88.7665,103.7373 C88.4559696,103.031914 88.1085811,102.342157 87.7258664,101.670163 C88.3613822,101.443656 88.9842302,101.189805 89.5927746,100.910169 C89.9590582,101.569126 90.294143,102.243544 90.597,102.9315 C93.1966,108.8367 93.4299,115.744 90.5314,122.5725 C88.5395,127.2651 83.8664,132.3952 76.4519,137.9072 C69.8156,142.8407 60.965,148.1115 49.8973,153.7147 C49.6344,153.8478 49.3262,153.8581 49.0549,153.743 C48.7837,153.6278 48.577,153.3989 48.4901,153.1173 C44.8324,141.2636 42.4758,131.2357 41.4147,123.0348 C40.2292,113.8723 40.6732,106.9471 42.6651,102.2545 C45.5637,95.4259 50.6944,90.7956 56.7481,88.5635 C57.3027288,88.3589944 57.8651799,88.1746431 58.4344485,88.0106263 C58.6687593,88.6438533 58.9306829,89.2628567 59.2182028,89.8673317 Z"></path><path d="M37.3295,69.3706 C44.158,66.4721 51.0653,66.7054 56.9705,69.305 C57.6983068,69.6254006 58.410962,69.9818707 59.1064015,70.3730269 C58.8246891,70.9816725 58.5696644,71.6045269 58.3418416,72.2403316 C57.6355401,71.831678 56.9088164,71.4630806 56.1647,71.1355 C50.7367,68.7459 44.3877,68.5473 38.111,71.2116 C33.6538,73.1036 28.8353,77.6009 23.5999,84.6433 C18.8793,90.9932 13.8512,99.3956 8.5104,109.849 C19.74,113.2687 29.277,115.4885 37.1239,116.5038 C45.8266,117.6299 52.4089,117.2878 56.8661,115.3959 C63.1428,112.7316 67.4103,108.0265 69.462,102.462 C69.6719493,101.892605 69.8587277,101.314305 70.0221499,100.728368 C70.6247597,101.019481 71.2424955,101.284788 71.8734615,101.523145 C71.7152182,102.07378 71.5362848,102.617498 71.3385,103.1539 C69.1064,109.2076 64.4761,114.3383 57.6475,117.2369 C52.9549,119.2288 46.0297,119.6728 36.8672,118.4873 C28.6663,117.4262 18.6384,115.0696 6.7847,111.4119 C6.5031,111.325 6.2742,111.1183 6.159,110.8471 C6.0439,110.5758 6.0542,110.2676 6.1873,110.0047 C11.7905,98.937 17.0613,90.0864 21.9948,83.4501 C27.5068,76.0356 32.6369,71.3625 37.3295,69.3706 Z"></path><path d="M36.8672,41.414 C46.0297,40.229 52.9549,40.673 57.6475,42.665 C64.4761,45.563 69.1064,50.694 71.3385,56.748 C71.5469661,57.3133699 71.7344897,57.8868644 71.9008801,58.46742 C71.2684913,58.7045001 70.6497832,58.9693363 70.0457184,59.2597853 C69.8769086,58.6441147 69.6821985,58.0371593 69.462,57.44 C67.4103,51.875 63.1428,47.17 56.8661,44.506 C52.4089,42.614 45.8266,42.272 37.1239,43.398 C29.277,44.413 19.74,46.633 8.5104,50.052 C13.8512,60.506 18.8793,68.9083 23.5999,75.2582 C28.8353,82.3006 33.6538,86.7979 38.111,88.6898 C44.3877,91.3542 50.7367,91.1555 56.1647,88.766 C56.8986709,88.4428857 57.6157203,88.0798655 58.3134451,87.6786652 C58.5383155,88.3150567 58.7909173,88.9387024 59.069348,89.5480728 C58.3863336,89.931946 57.6857343,90.2816395 56.9705,90.5965 C51.0653,93.1961 44.158,93.4294 37.3295,90.5309 C32.6369,88.539 27.5068,83.8659 21.9948,76.4514 C17.0613,69.815 11.7905,60.965 6.1873,49.897 C6.0542,49.634 6.0439,49.326 6.159,49.054 C6.2742,48.783 6.5031,48.576 6.7847,48.49 C18.6384,44.832 28.6663,42.475 36.8672,41.414 Z"></path><path d="M49.6193,5.925 C49.8925,5.814 50.2005,5.83 50.4611,5.968 C61.4293,11.763 70.1865,17.188 76.7357,22.236 C84.0529,27.877 88.6357,33.088 90.5454,37.814 C93.3243,44.692 92.9705,51.595 90.2682,57.454 C90.0211845,57.9895718 89.7544737,58.5164611 89.4686467,59.0338363 C88.8575164,58.7568412 88.2328598,58.506626 87.5953959,58.2836858 C87.9051444,57.7391411 88.1906235,57.1829087 88.4521,56.616 C90.936,51.23 91.2454,44.886 88.6911,38.564 C86.8772,34.074 82.4647,29.178 75.5147,23.82 C69.2482,18.99 60.9348,13.816 50.5762,8.293 C46.961,19.461 44.5751,28.958 43.423,36.786 C42.1452,45.468 42.3724,52.055 44.1862,56.545 C46.7406,62.867 51.3705,67.2159 56.8983,69.3644 C57.6572473,69.6593795 58.4329518,69.9129335 59.222357,70.1245606 C58.9339561,70.7296499 58.6714824,71.3493679 58.4360734,71.9822522 C57.6684571,71.76769 56.9137564,71.5161941 56.1738,71.2286 C50.1599,68.8911 45.1108,64.1719 42.3319,57.294 C40.4222,52.567 40.099,45.635 41.4443,36.495 C42.6484,28.314 45.1796,18.328 49.0436,6.54 C49.1354,6.26 49.3461,6.035 49.6193,5.925 Z"></path></g><g fill="#000000" transform="translate(160 159)" class="color000 svgShape"><path d="M73.4684 21.2807C73.6863 21.7336 74.2065 21.9544 74.6836 21.7966 78.1536 20.6486 80.9199 19.389 82.988 18.03 85.1955 16.579 86.6314 14.994 87.3429 13.318 88.4075 10.81 88.3697 8.404 87.5405 6.374 86.6698 4.241 84.9159 2.51 82.5749 1.517 80.2339.523 77.7704.464 75.6317 1.319 73.5948 2.133 71.8384 3.776 70.7738 6.285 70.0623 7.961 69.9193 10.095 70.4092 12.691 70.8681 15.122 71.8837 17.987 73.4684 21.2807zM74.8932 19.6134C77.7759 18.61 80.1094 17.529 81.8896 16.359 83.699 15.169 84.9187 13.91 85.5018 12.536 86.3309 10.583 86.3346 8.711 85.6889 7.13 85.0092 5.465 83.6209 4.133 81.7934 3.358 79.9659 2.582 78.0437 2.508 76.3741 3.176 74.7879 3.81 73.4439 5.113 72.6148 7.066 72.0316 8.44 71.973 10.192 72.3745 12.32 72.7696 14.413 73.6122 16.843 74.8932 19.6134zM95.6622 42.6586C95.496 43.1329 95.7077 43.6569 96.1567 43.8826 99.422 45.5246 102.269 46.59 104.692 47.0913 107.279 47.6264 109.415 47.5207 111.104 46.8386 113.63 45.8179 115.304 44.0904 116.154 42.0681 117.046 39.9446 117.03 37.4805 116.077 35.1225 115.124 32.7645 113.424 30.9806 111.307 30.0729 109.291 29.2084 106.887 29.1286 104.361 30.1493 102.672 30.8314 101.062 32.2394 99.573 34.4212 98.178 36.4653 96.8705 39.2092 95.6622 42.6586zM97.8487 42.4871C100.596 43.8163 103.011 44.7013 105.097 45.1328 107.218 45.5714 108.971 45.5433 110.354 44.9842 112.322 44.1894 113.648 42.8683 114.31 41.2934 115.006 39.6357 114.966 37.7124 114.222 35.8717 113.479 34.031 112.172 32.6196 110.519 31.911 108.949 31.2378 107.077 31.2088 105.11 32.0037 103.726 32.5627 102.446 33.7603 101.225 35.5486 100.024 37.3082 98.902 39.6224 97.8487 42.4871zM96.2393 73.4684C95.7864 73.6863 95.5656 74.2065 95.7234 74.6836 96.8714 78.1536 98.131 80.9199 99.49 82.988 100.941 85.1955 102.526 86.6314 104.202 87.3429 106.71 88.4075 109.116 88.3697 111.146 87.5405 113.279 86.6698 115.01 84.9159 116.003 82.5749 116.997 80.2339 117.056 77.7705 116.201 75.6317 115.387 73.5949 113.744 71.8384 111.235 70.7738 109.559 70.0623 107.425 69.9193 104.829 70.4092 102.398 70.8682 99.533 71.8837 96.2393 73.4684zM97.9066 74.8933C98.91 77.7759 99.991 80.1094 101.161 81.8896 102.351 83.699 103.61 84.9187 104.984 85.5019 106.937 86.331 108.809 86.3346 110.39 85.6889 112.055 85.0092 113.387 83.6209 114.162 81.7934 114.938 79.966 115.012 78.0437 114.344 76.3741 113.71 74.7879 112.407 73.4439 110.454 72.6148 109.08 72.0316 107.328 71.973 105.2 72.3745 103.107 72.7696 100.677 73.6123 97.9066 74.8933zM74.8614 95.6623C74.3871 95.4961 73.8631 95.7078 73.6374 96.1568 71.9954 99.4222 70.93 102.2689 70.4287 104.6923 69.8936 107.2791 69.9993 109.4154 70.6814 111.1037 71.7021 113.63 73.4296 115.304 75.4519 116.1537 77.5754 117.0459 80.0395 117.0296 82.3975 116.0769 84.7555 115.1242 86.5394 113.4242 87.4471 111.3073 88.3116 109.2913 88.3914 106.8871 87.3707 104.3608 86.6886 102.6725 85.2806 101.0623 83.0988 99.5733 81.0547 98.1782 78.3108 96.8706 74.8614 95.6623zM75.0329 97.8487C73.7037 100.5963 72.8187 103.0113 72.3872 105.0975 71.9486 107.2177 71.9767 108.9707 72.5358 110.3545 73.3306 112.3219 74.6517 113.6482 76.2266 114.3099 77.8843 115.0063 79.8076 114.9662 81.6483 114.2225 83.489 113.4788 84.9004 112.1717 85.609 110.5191 86.2822 108.9491 86.3112 107.0774 85.5163 105.11 84.9573 103.7262 83.7597 102.4457 81.9714 101.2252 80.2118 100.0244 77.8976 98.9019 75.0329 97.8487zM44.0516 96.2392C43.8337 95.7864 43.3135 95.5656 42.8364 95.7234 39.3664 96.8714 36.6001 98.1309 34.532 99.4901 32.3245 100.9408 30.8886 102.5262 30.1771 104.2023 29.1125 106.7104 29.1503 109.1156 29.9795 111.1465 30.8502 113.2789 32.6041 115.0097 34.9451 116.0034 37.2861 116.9971 39.7495 117.0565 41.8883 116.2015 43.9251 115.3872 45.6816 113.7436 46.7462 111.2355 47.4577 109.5593 47.6007 107.4252 47.1108 104.8295 46.6518 102.3977 45.6363 99.5328 44.0516 96.2392zM42.6267 97.9066C39.7441 98.9095 37.4106 99.9915 35.6304 101.1614 33.821 102.3505 32.6013 103.6099 32.0181 104.9838 31.189 106.937 31.1854 108.809 31.8311 110.3905 32.5108 112.0551 33.8991 113.3867 35.7266 114.1624 37.554 114.9381 39.4763 115.0118 41.1459 114.3444 42.7321 113.7102 44.0761 112.4072 44.9052 110.454 45.4884 109.0802 45.547 107.3279 45.1455 105.2004 44.7504 103.107 43.9077 100.6769 42.6267 97.9066zM21.7966 74.6836C21.9544 74.2065 21.7336 73.6863 21.2808 73.4684 17.9872 71.8837 15.1223 70.8682 12.6905 70.4092 10.0948 69.9193 7.9607 70.0623 6.2845 70.7738 3.7764 71.8384 2.1328 73.5949 1.3185 75.6317.4635 77.7705.5229 80.2339 1.5166 82.5749 2.5103 84.9159 4.2411 86.6698 6.3735 87.5405 8.4044 88.3697 10.8096 88.4075 13.3177 87.3429 14.9938 86.6314 16.5792 85.1955 18.0299 82.988 19.3891 80.9199 20.6486 78.1536 21.7966 74.6836zM19.6134 74.8933C16.8431 73.6123 14.413 72.7696 12.3196 72.3745 10.1921 71.973 8.4398 72.0316 7.066 72.6148 5.1128 73.4439 3.8098 74.7879 3.1756 76.3741 2.5082 78.0437 2.5819 79.966 3.3576 81.7935 4.1333 83.6209 5.4649 85.0092 7.1295 85.6889 8.711 86.3346 10.583 86.331 12.5362 85.5019 13.9101 84.9187 15.1695 83.699 16.3586 81.8896 17.5285 80.1094 18.6105 77.7759 19.6134 74.8933zM21.2808 44.0516C21.7336 43.8337 21.9544 43.3135 21.7966 42.8364 20.6486 39.3664 19.3891 36.6001 18.0299 34.532 16.5792 32.3245 14.9938 30.8886 13.3177 30.1771 10.8096 29.1125 8.4044 29.1503 6.3735 29.9795 4.2411 30.8502 2.5103 32.6041 1.5166 34.9451.5229 37.2861.4635 39.7496 1.3185 41.8883 2.1328 43.9252 3.7764 45.6816 6.2845 46.7462 7.9607 47.4577 10.0948 47.6007 12.6905 47.1108 15.1223 46.6519 17.9872 45.6363 21.2808 44.0516zM19.6134 42.6268C18.6105 39.7441 17.5285 37.4106 16.3586 35.6304 15.1695 33.821 13.9101 32.6013 12.5362 32.0182 10.583 31.1891 8.711 31.1854 7.1295 31.8311 5.4649 32.5108 4.1333 33.8991 3.3576 35.7266 2.5819 37.5541 2.5082 39.4763 3.1756 41.1459 3.8098 42.7321 5.1128 44.0761 7.066 44.9052 8.4398 45.4884 10.1921 45.547 12.3196 45.1455 14.413 44.7504 16.8431 43.9078 19.6134 42.6268zM42.6586 21.8578C43.1329 22.024 43.6568 21.8123 43.8826 21.3633 45.5246 18.098 46.59 15.251 47.0913 12.828 47.6264 10.241 47.5207 8.105 46.8386 6.416 45.8179 3.89 44.0904 2.216 42.0681 1.366 39.9446.474 37.4804.49 35.1225 1.443 32.7645 2.396 30.9806 4.096 30.0729 6.213 29.2083 8.229 29.1286 10.633 30.1493 13.159 30.8314 14.848 32.2394 16.458 34.4212 17.947 36.4653 19.342 39.2092 20.6495 42.6586 21.8578zM42.4871 19.6713C43.8163 16.924 44.7012 14.509 45.1328 12.423 45.5713 10.302 45.5433 8.549 44.9842 7.166 44.1893 5.198 42.8682 3.872 41.2934 3.21 39.6357 2.514 37.7124 2.554 35.8717 3.298 34.0309 4.041 32.6196 5.348 31.911 7.001 31.2378 8.571 31.2088 10.443 32.0036 12.41 32.5627 13.794 33.7603 15.074 35.5486 16.295 37.3082 17.496 39.6224 18.618 42.4871 19.6713z" transform="translate(741.228 21.227)"></path><g fill-rule="nonzero" transform="translate(720)"><path d="M80,47 C76.9624339,47 74.5,49.4624339 74.5,52.5 C74.5,55.5375661 76.9624339,58 80,58 C83.0375661,58 85.5,55.5375661 85.5,52.5 C85.5,49.4624339 83.0375661,47 80,47 Z M80,49 C81.9329966,49 83.5,50.5670034 83.5,52.5 C83.5,54.4329966 81.9329966,56 80,56 C78.0670034,56 76.5,54.4329966 76.5,52.5 C76.5,50.5670034 78.0670034,49 80,49 Z"></path><path d="M99.4454365,55.0545635 C96.4078704,55.0545635 93.9454365,57.5169974 93.9454365,60.5545635 C93.9454365,63.5921296 96.4078704,66.0545635 99.4454365,66.0545635 C102.483003,66.0545635 104.945436,63.5921296 104.945436,60.5545635 C104.945436,57.5169974 102.483003,55.0545635 99.4454365,55.0545635 Z M99.4454365,57.0545635 C101.378433,57.0545635 102.945436,58.6215669 102.945436,60.5545635 C102.945436,62.4875601 101.378433,64.0545635 99.4454365,64.0545635 C97.5124399,64.0545635 95.9454365,62.4875601 95.9454365,60.5545635 C95.9454365,58.6215669 97.5124399,57.0545635 99.4454365,57.0545635 Z" transform="rotate(45 99.445 60.555)"></path><path d="M107.5,74.5 C104.462434,74.5 102,76.9624339 102,80 C102,83.0375661 104.462434,85.5 107.5,85.5 C110.537566,85.5 113,83.0375661 113,80 C113,76.9624339 110.537566,74.5 107.5,74.5 Z M107.5,76.5 C109.432997,76.5 111,78.0670034 111,80 C111,81.9329966 109.432997,83.5 107.5,83.5 C105.567003,83.5 104,81.9329966 104,80 C104,78.0670034 105.567003,76.5 107.5,76.5 Z" transform="rotate(90 107.5 80)"></path><path d="M99.4454365,93.9454365 C96.4078704,93.9454365 93.9454365,96.4078704 93.9454365,99.4454365 C93.9454365,102.483003 96.4078704,104.945436 99.4454365,104.945436 C102.483003,104.945436 104.945436,102.483003 104.945436,99.4454365 C104.945436,96.4078704 102.483003,93.9454365 99.4454365,93.9454365 Z M99.4454365,95.9454365 C101.378433,95.9454365 102.945436,97.5124399 102.945436,99.4454365 C102.945436,101.378433 101.378433,102.945436 99.4454365,102.945436 C97.5124399,102.945436 95.9454365,101.378433 95.9454365,99.4454365 C95.9454365,97.5124399 97.5124399,95.9454365 99.4454365,95.9454365 Z" transform="rotate(135 99.445 99.445)"></path><path d="M80,102 C76.9624339,102 74.5,104.462434 74.5,107.5 C74.5,110.537566 76.9624339,113 80,113 C83.0375661,113 85.5,110.537566 85.5,107.5 C85.5,104.462434 83.0375661,102 80,102 Z M80,104 C81.9329966,104 83.5,105.567003 83.5,107.5 C83.5,109.432997 81.9329966,111 80,111 C78.0670034,111 76.5,109.432997 76.5,107.5 C76.5,105.567003 78.0670034,104 80,104 Z" transform="rotate(180 80 107.5)"></path><path d="M60.5545635,93.9454365 C57.5169974,93.9454365 55.0545635,96.4078704 55.0545635,99.4454365 C55.0545635,102.483003 57.5169974,104.945436 60.5545635,104.945436 C63.5921296,104.945436 66.0545635,102.483003 66.0545635,99.4454365 C66.0545635,96.4078704 63.5921296,93.9454365 60.5545635,93.9454365 Z M60.5545635,95.9454365 C62.4875601,95.9454365 64.0545635,97.5124399 64.0545635,99.4454365 C64.0545635,101.378433 62.4875601,102.945436 60.5545635,102.945436 C58.6215669,102.945436 57.0545635,101.378433 57.0545635,99.4454365 C57.0545635,97.5124399 58.6215669,95.9454365 60.5545635,95.9454365 Z" transform="rotate(-135 60.555 99.445)"></path><path d="M52.5,74.5 C49.4624339,74.5 47,76.9624339 47,80 C47,83.0375661 49.4624339,85.5 52.5,85.5 C55.5375661,85.5 58,83.0375661 58,80 C58,76.9624339 55.5375661,74.5 52.5,74.5 Z M52.5,76.5 C54.4329966,76.5 56,78.0670034 56,80 C56,81.9329966 54.4329966,83.5 52.5,83.5 C50.5670034,83.5 49,81.9329966 49,80 C49,78.0670034 50.5670034,76.5 52.5,76.5 Z" transform="rotate(-90 52.5 80)"></path><path d="M60.5545635,55.0545635 C57.5169974,55.0545635 55.0545635,57.5169974 55.0545635,60.5545635 C55.0545635,63.5921296 57.5169974,66.0545635 60.5545635,66.0545635 C63.5921296,66.0545635 66.0545635,63.5921296 66.0545635,60.5545635 C66.0545635,57.5169974 63.5921296,55.0545635 60.5545635,55.0545635 Z M60.5545635,57.0545635 C62.4875601,57.0545635 64.0545635,58.6215669 64.0545635,60.5545635 C64.0545635,62.4875601 62.4875601,64.0545635 60.5545635,64.0545635 C58.6215669,64.0545635 57.0545635,62.4875601 57.0545635,60.5545635 C57.0545635,58.6215669 58.6215669,57.0545635 60.5545635,57.0545635 Z" transform="rotate(-45 60.555 60.555)"></path></g></g></g></svg></g></svg>