<svg id="SvgjsSvg1001" width="288" height="288" xmlns="http://www.w3.org/2000/svg" version="1.1" xmlns:xlink="http://www.w3.org/1999/xlink" xmlns:svgjs="http://svgjs.com/svgjs"><defs id="SvgjsDefs1002"></defs><g id="SvgjsG1008"><svg xmlns="http://www.w3.org/2000/svg" enable-background="new 0 0 32 32" viewBox="0 0 32 32" width="288" height="288"><path fill="#080808" d="M26,32H6c-3.314,0-6-2.686-6-6V6c0-3.314,2.686-6,6-6h20c3.314,0,6,2.686,6,6v20C32,29.314,29.314,32,26,32z" class="colorFFE6E2 svgShape"></path><path fill="#ffffff" d="M8,18.539c0,0.002,0,0.004,0,0.006c0,0.124,0.05,0.237,0.131,0.319C8.21,18.947,8.321,19,8.444,19c0.002,0,0.004,0,0.007,0h0.001c0.001,0,0.001,0,0.002,0c0.125,0,0.237-0.052,0.317-0.136c0.083-0.081,0.135-0.195,0.135-0.321c0-0.001,0-0.003,0-0.005c0-0.001,0-0.001,0-0.001c0-0.127-0.051-0.241-0.134-0.323c-0.08-0.086-0.193-0.139-0.319-0.139c-0.001,0-0.001,0-0.001,0c-0.002,0-0.005,0-0.008,0c-0.002,0-0.005,0-0.007,0H8.436H8.435c-0.121,0.003-0.228,0.056-0.304,0.139C8.05,18.296,8,18.41,8,18.535C8,18.537,8,18.537,8,18.539z" class="colorFD907E svgShape"></path><polygon fill="#ffffff" points="19.277 13.628 19.277 13.001 16.321 13.001 16.321 18.919 19.421 18.919 19.424 18.269 17.018 18.269 17.018 16.218 19.124 16.218 19.124 15.595 17.018 15.595 17.018 13.628" class="colorFD907E svgShape"></polygon><polygon fill="#ffffff" points="10.976 14.206 10.975 14.206 10.971 14.199" class="colorFD907E svgShape"></polygon><polygon fill="#ffffff" points="24 13.001 19.946 13.001 19.946 13.627 21.623 13.627 21.623 18.919 22.304 18.919 22.304 13.627 24 13.627" class="colorFC573B svgShape"></polygon><path fill="#ffffff" d="M10.793,14.64c0.001-0.047,0.002-0.104,0.002-0.16c0-0.23-0.013-0.457-0.037-0.68l0.003,0.028h0.025c0.054,0.142,0.117,0.264,0.19,0.377l2.994,4.712h0.838V13h-0.681v4.162c-0.001,0.04-0.001,0.087-0.001,0.135c0,0.259,0.015,0.515,0.045,0.766l-0.003-0.03h-0.015c-0.036-0.072-0.115-0.203-0.237-0.396l-2.918-4.636h-0.886v5.918h0.682V14.64z" class="colorFC573B svgShape"></path></svg></g></svg>