<svg xmlns="http://www.w3.org/2000/svg" viewBox="0 0 24 24" id="python"><path d="M5 18H3.8C2.096 18 .888 16.879.398 14.844c-.534-2.229-.534-3.586 0-5.81C.853 7.135 2.317 6 4.314 6h2.059a.5.5 0 0 1-.5-.5V3.579c0-1.766.516-2.88 3.155-3.346 1.742-.309 3.802-.312 5.65-.006C16.393.517 17.5 1.83 17.5 3.575v5.231c0 1.737-1.031 2.693-2.904 2.693H9.114c-1.667 0-3.614.918-3.614 3.504V17.5a.5.5 0 0 1-.5.5zM4.314 7c-1.525 0-2.598.826-2.943 2.268-.498 2.069-.498 3.268 0 5.343C1.633 15.7 2.268 17 3.8 17h.7v-1.996c0-3.111 2.317-4.504 4.614-4.504h5.482c1.334 0 1.904-.507 1.904-1.693V3.575c0-1.25-.761-2.155-1.987-2.361-1.74-.286-3.676-.287-5.312.005-2.099.37-2.328 1.035-2.328 2.36V5h4.989a.5.5 0 0 1 .5.5v1a.5.5 0 0 1-.5.5H4.314z"></path><path d="M9.5 4.525c-.827 0-1.5-.677-1.5-1.51.008-.837.681-1.515 1.5-1.515.827 0 1.5.68 1.5 1.515 0 .833-.673 1.51-1.5 1.51zm0-2.025a.509.509 0 0 0-.5.52c0 .276.224.506.5.506s.5-.23.5-.511a.514.514 0 0 0-.5-.515zM12.168 24a17.48 17.48 0 0 1-2.846-.228C7.607 23.483 6.5 22.17 6.5 20.425v-5.231c0-1.737 1.031-2.693 2.904-2.693h5.482c1.667 0 3.614-.918 3.614-3.504V6.5A.5.5 0 0 1 19 6h1.2c1.704 0 2.912 1.121 3.402 3.156.534 2.229.534 3.586 0 5.81C23.147 16.865 21.683 18 19.686 18h-7.048 4.989a.5.5 0 0 1 .5.5v1.921c0 1.766-.516 2.88-3.155 3.346-.877.155-1.834.233-2.804.233zM9.404 13.5c-1.334 0-1.904.507-1.904 1.693v5.231c0 1.25.761 2.155 1.987 2.361 1.74.287 3.676.286 5.312-.005 2.099-.37 2.328-1.035 2.328-2.36V19h-4.989a.5.5 0 0 1-.5-.5v-1a.5.5 0 0 1 .5-.5h7.548c1.525 0 2.598-.826 2.943-2.268.498-2.069.498-3.268 0-5.343C22.367 8.3 21.732 7 20.2 7h-.7v1.996c0 3.111-2.317 4.504-4.614 4.504H9.404z"></path><path d="M14.5 22.5c-.827 0-1.5-.68-1.5-1.515 0-.833.673-1.511 1.5-1.511s1.5.678 1.5 1.511c-.008.837-.681 1.515-1.5 1.515zm0-2.025c-.276 0-.5.229-.5.511 0 .279.229.515.5.515a.509.509 0 0 0 .5-.52.505.505 0 0 0-.5-.506z"></path></svg>