<svg xmlns="http://www.w3.org/2000/svg" width="128" height="128" fill="none" viewBox="0 0 128 128" id="sql"><path stroke="#000" stroke-width="5" d="M76 27V41C76 42.6569 77.3431 44 79 44H93"></path><path fill="#000" d="M35.72 75.2198C35.84 75.3132 35.9867 75.4398 36.16 75.5998 36.3333 75.7465 36.5333 75.8998 36.76 76.0598 37.0933 76.2865 37.4267 76.4665 37.76 76.5998 38.1067 76.7198 38.46 76.7798 38.82 76.7798 39.5133 76.7798 39.98 76.6398 40.22 76.3598 40.4733 76.0798 40.6 75.7532 40.6 75.3798 40.6 75.1665 40.52 74.9798 40.36 74.8198 40.2 74.6598 40.0067 74.5198 39.78 74.3998 39.5667 74.2665 39.3333 74.1598 39.08 74.0798 38.84 73.9865 38.6267 73.9065 38.44 73.8398 36.8267 73.2798 35.62 72.6198 34.82 71.8598 34.0333 71.0998 33.64 70.1332 33.64 68.9598 33.64 68.3332 33.7667 67.7665 34.02 67.2598 34.2733 66.7532 34.6267 66.3198 35.08 65.9598 35.5467 65.5998 36.1067 65.3265 36.76 65.1398 37.4133 64.9398 38.14 64.8398 38.94 64.8398 39.54 64.8398 40.12 64.9065 40.68 65.0398 41.2533 65.1732 41.8067 65.3932 42.34 65.6998 42.7933 65.9665 43.1867 66.2398 43.52 66.5198 43.8533 66.7998 44.02 67.0332 44.02 67.2198 44.02 67.3398 43.9333 67.4998 43.76 67.6998L42.22 69.3398C42.1133 69.4465 42 69.4998 41.88 69.4998 41.7867 69.4998 41.7 69.4732 41.62 69.4198 41.5533 69.3665 41.4733 69.2998 41.38 69.2198L41.28 69.1398C41.0133 68.9132 40.6867 68.6932 40.3 68.4798 39.9267 68.2532 39.5267 68.1398 39.1 68.1398 38.66 68.1398 38.28 68.2132 37.96 68.3598 37.64 68.5065 37.48 68.7732 37.48 69.1598 37.48 69.5332 37.6667 69.8198 38.04 70.0198 38.4133 70.2198 38.9667 70.4398 39.7 70.6798 40.4067 70.9198 41.06 71.1665 41.66 71.4198 42.26 71.6732 42.7733 71.9798 43.2 72.3398 43.64 72.6865 43.98 73.1065 44.22 73.5998 44.46 74.0798 44.58 74.6665 44.58 75.3598 44.58 76.0932 44.4267 76.7598 44.12 77.3598 43.8267 77.9465 43.42 78.4532 42.9 78.8798 42.38 79.2932 41.7667 79.6198 41.06 79.8598 40.3533 80.0865 39.5933 80.1998 38.78 80.1998 38.26 80.1998 37.7467 80.1332 37.24 79.9998 36.7333 79.8665 36.24 79.6865 35.76 79.4598 35.2933 79.2332 34.8533 78.9665 34.44 78.6598 34.0267 78.3532 33.66 78.0198 33.34 77.6598L33.3 77.6398C33.2867 77.6132 33.2733 77.5998 33.26 77.5998 33.2467 77.5865 33.2333 77.5732 33.22 77.5598 33.0733 77.3998 33 77.2665 33 77.1598 33 77.0532 33.0733 76.9265 33.22 76.7798L34.96 75.1198C35.0933 75.0265 35.2067 74.9798 35.3 74.9798 35.4067 74.9798 35.5467 75.0598 35.72 75.2198zM46.345 72.5998C46.345 71.5332 46.545 70.5398 46.945 69.6198 47.345 68.6865 47.885 67.8732 48.565 67.1798 49.2583 66.4865 50.0717 65.9398 51.005 65.5398 51.9383 65.1398 52.9317 64.9398 53.985 64.9398 55.0383 64.9398 56.025 65.1398 56.945 65.5398 57.8783 65.9398 58.6917 66.4865 59.385 67.1798 60.0783 67.8732 60.625 68.6865 61.025 69.6198 61.425 70.5398 61.625 71.5332 61.625 72.5998 61.625 73.4932 61.4783 74.3465 61.185 75.1598 60.905 75.9732 60.5117 76.7065 60.005 77.3598 59.4983 78.0132 58.8917 78.5665 58.185 79.0198 57.4917 79.4732 56.725 79.7998 55.885 79.9998V82.6998C55.885 82.9932 55.725 83.1398 55.405 83.1398H52.445C52.1517 83.1398 52.005 82.9932 52.005 82.6998V79.9798C51.1783 79.7798 50.4183 79.4532 49.725 78.9998 49.0317 78.5465 48.4317 77.9932 47.925 77.3398 47.4317 76.6865 47.045 75.9598 46.765 75.1598 46.485 74.3465 46.345 73.4932 46.345 72.5998zM50.205 72.5798C50.205 73.1398 50.2983 73.6598 50.485 74.1398 50.6717 74.6198 50.9317 75.0398 51.265 75.3998 51.5983 75.7465 51.9983 76.0265 52.465 76.2398 52.9317 76.4398 53.4383 76.5398 53.985 76.5398 54.5317 76.5398 55.0383 76.4398 55.505 76.2398 55.9717 76.0265 56.3717 75.7465 56.705 75.3998 57.0383 75.0398 57.2983 74.6198 57.485 74.1398 57.6717 73.6598 57.765 73.1398 57.765 72.5798 57.765 72.0332 57.6717 71.5198 57.485 71.0398 57.2983 70.5598 57.0383 70.1398 56.705 69.7798 56.3717 69.4198 55.9717 69.1398 55.505 68.9398 55.0383 68.7265 54.5317 68.6198 53.985 68.6198 53.4383 68.6198 52.9317 68.7265 52.465 68.9398 51.9983 69.1398 51.5983 69.4198 51.265 69.7798 50.9317 70.1398 50.6717 70.5598 50.485 71.0398 50.2983 71.5198 50.205 72.0332 50.205 72.5798zM64.0163 79.5598V65.5998C64.0163 65.4532 64.0562 65.3465 64.1362 65.2798 64.2296 65.1998 64.3296 65.1598 64.4363 65.1598H67.4362C67.7162 65.1598 67.8562 65.3065 67.8562 65.5998V76.4598H73.4162C73.6962 76.4598 73.8363 76.6065 73.8363 76.8998V79.5598C73.8363 79.8532 73.6962 79.9998 73.4162 79.9998H64.4363C64.1562 79.9998 64.0163 79.8532 64.0163 79.5598z"></path><path stroke="#000" stroke-width=".5" d="M35.72 75.2198C35.84 75.3132 35.9867 75.4398 36.16 75.5998 36.3333 75.7465 36.5333 75.8998 36.76 76.0598 37.0933 76.2865 37.4267 76.4665 37.76 76.5998 38.1067 76.7198 38.46 76.7798 38.82 76.7798 39.5133 76.7798 39.98 76.6398 40.22 76.3598 40.4733 76.0798 40.6 75.7532 40.6 75.3798 40.6 75.1665 40.52 74.9798 40.36 74.8198 40.2 74.6598 40.0067 74.5198 39.78 74.3998 39.5667 74.2665 39.3333 74.1598 39.08 74.0798 38.84 73.9865 38.6267 73.9065 38.44 73.8398 36.8267 73.2798 35.62 72.6198 34.82 71.8598 34.0333 71.0998 33.64 70.1332 33.64 68.9598 33.64 68.3332 33.7667 67.7665 34.02 67.2598 34.2733 66.7532 34.6267 66.3198 35.08 65.9598 35.5467 65.5998 36.1067 65.3265 36.76 65.1398 37.4133 64.9398 38.14 64.8398 38.94 64.8398 39.54 64.8398 40.12 64.9065 40.68 65.0398 41.2533 65.1732 41.8067 65.3932 42.34 65.6998 42.7933 65.9665 43.1867 66.2398 43.52 66.5198 43.8533 66.7998 44.02 67.0332 44.02 67.2198 44.02 67.3398 43.9333 67.4998 43.76 67.6998L42.22 69.3398C42.1133 69.4465 42 69.4998 41.88 69.4998 41.7867 69.4998 41.7 69.4732 41.62 69.4198 41.5533 69.3665 41.4733 69.2998 41.38 69.2198L41.28 69.1398C41.0133 68.9132 40.6867 68.6932 40.3 68.4798 39.9267 68.2532 39.5267 68.1398 39.1 68.1398 38.66 68.1398 38.28 68.2132 37.96 68.3598 37.64 68.5065 37.48 68.7732 37.48 69.1598 37.48 69.5332 37.6667 69.8198 38.04 70.0198 38.4133 70.2198 38.9667 70.4398 39.7 70.6798 40.4067 70.9198 41.06 71.1665 41.66 71.4198 42.26 71.6732 42.7733 71.9798 43.2 72.3398 43.64 72.6865 43.98 73.1065 44.22 73.5998 44.46 74.0798 44.58 74.6665 44.58 75.3598 44.58 76.0932 44.4267 76.7598 44.12 77.3598 43.8267 77.9465 43.42 78.4532 42.9 78.8798 42.38 79.2932 41.7667 79.6198 41.06 79.8598 40.3533 80.0865 39.5933 80.1998 38.78 80.1998 38.26 80.1998 37.7467 80.1332 37.24 79.9998 36.7333 79.8665 36.24 79.6865 35.76 79.4598 35.2933 79.2332 34.8533 78.9665 34.44 78.6598 34.0267 78.3532 33.66 78.0198 33.34 77.6598L33.3 77.6398C33.2867 77.6132 33.2733 77.5998 33.26 77.5998 33.2467 77.5865 33.2333 77.5732 33.22 77.5598 33.0733 77.3998 33 77.2665 33 77.1598 33 77.0532 33.0733 76.9265 33.22 76.7798L34.96 75.1198C35.0933 75.0265 35.2067 74.9798 35.3 74.9798 35.4067 74.9798 35.5467 75.0598 35.72 75.2198zM46.345 72.5998C46.345 71.5332 46.545 70.5398 46.945 69.6198 47.345 68.6865 47.885 67.8732 48.565 67.1798 49.2583 66.4865 50.0717 65.9398 51.005 65.5398 51.9383 65.1398 52.9317 64.9398 53.985 64.9398 55.0383 64.9398 56.025 65.1398 56.945 65.5398 57.8783 65.9398 58.6917 66.4865 59.385 67.1798 60.0783 67.8732 60.625 68.6865 61.025 69.6198 61.425 70.5398 61.625 71.5332 61.625 72.5998 61.625 73.4932 61.4783 74.3465 61.185 75.1598 60.905 75.9732 60.5117 76.7065 60.005 77.3598 59.4983 78.0132 58.8917 78.5665 58.185 79.0198 57.4917 79.4732 56.725 79.7998 55.885 79.9998V82.6998C55.885 82.9932 55.725 83.1398 55.405 83.1398H52.445C52.1517 83.1398 52.005 82.9932 52.005 82.6998V79.9798C51.1783 79.7798 50.4183 79.4532 49.725 78.9998 49.0317 78.5465 48.4317 77.9932 47.925 77.3398 47.4317 76.6865 47.045 75.9598 46.765 75.1598 46.485 74.3465 46.345 73.4932 46.345 72.5998zM50.205 72.5798C50.205 73.1398 50.2983 73.6598 50.485 74.1398 50.6717 74.6198 50.9317 75.0398 51.265 75.3998 51.5983 75.7465 51.9983 76.0265 52.465 76.2398 52.9317 76.4398 53.4383 76.5398 53.985 76.5398 54.5317 76.5398 55.0383 76.4398 55.505 76.2398 55.9717 76.0265 56.3717 75.7465 56.705 75.3998 57.0383 75.0398 57.2983 74.6198 57.485 74.1398 57.6717 73.6598 57.765 73.1398 57.765 72.5798 57.765 72.0332 57.6717 71.5198 57.485 71.0398 57.2983 70.5598 57.0383 70.1398 56.705 69.7798 56.3717 69.4198 55.9717 69.1398 55.505 68.9398 55.0383 68.7265 54.5317 68.6198 53.985 68.6198 53.4383 68.6198 52.9317 68.7265 52.465 68.9398 51.9983 69.1398 51.5983 69.4198 51.265 69.7798 50.9317 70.1398 50.6717 70.5598 50.485 71.0398 50.2983 71.5198 50.205 72.0332 50.205 72.5798zM64.0163 79.5598V65.5998C64.0163 65.4532 64.0562 65.3465 64.1362 65.2798 64.2296 65.1998 64.3296 65.1598 64.4363 65.1598H67.4362C67.7162 65.1598 67.8562 65.3065 67.8562 65.5998V76.4598H73.4162C73.6962 76.4598 73.8363 76.6065 73.8363 76.8998V79.5598C73.8363 79.8532 73.6962 79.9998 73.4162 79.9998H64.4363C64.1562 79.9998 64.0163 79.8532 64.0163 79.5598z"></path><path stroke="#000" stroke-linecap="round" stroke-width="5" d="M35 54.5L35 35C35 30.0294 39.0294 26 44 26H74.0785C75.9108 26 77.6701 26.7184 78.9786 28.0011L88.0509 36.8939L91.1244 40.1967C92.3299 41.4921 93 43.1959 93 44.9654V93C93 97.9706 88.9706 102 84 102H44C39.0294 102 35 97.9706 35 93L35 90"></path></svg>