<svg xmlns="http://www.w3.org/2000/svg" width="96" height="96" fill="none" viewBox="0 0 96 96" id="brackets-ellipses"><path stroke="#000" stroke-linecap="round" stroke-width="5" d="M70 10H72.422C76.2879 10 79.422 13.134 79.422 17V38.7465C79.422 39.8054 79.8418 40.8211 80.5894 41.5709L85.5919 46.5878C86.3702 47.3684 86.3702 48.6316 85.5919 49.4122L80.5894 54.4291C79.8418 55.1789 79.422 56.1946 79.422 57.2535V79C79.422 82.866 76.2879 86 72.422 86H70M26 10H23.578C19.7121 10 16.578 13.134 16.578 17V38.7465C16.578 39.8054 16.1582 40.8211 15.4106 41.5709L10.4081 46.5878C9.62976 47.3684 9.62976 48.6316 10.4081 49.4122L15.4106 54.4291C16.1582 55.1789 16.578 56.1946 16.578 57.2535V79C16.578 82.866 19.7121 86 23.578 86H26"></path><path fill="#000" stroke="#000" stroke-width="3" d="M46 48C46 49.1046 46.8954 50 48 50 49.1046 50 50 49.1046 50 48 50 46.8954 49.1046 46 48 46 46.8954 46 46 46.8954 46 48zM34 48C34 49.1046 34.8954 50 36 50 37.1046 50 38 49.1046 38 48 38 46.8954 37.1046 46 36 46 34.8954 46 34 46.8954 34 48zM58 48C58 49.1046 58.8954 50 60 50 61.1046 50 62 49.1046 62 48 62 46.8954 61.1046 46 60 46 58.8954 46 58 46.8954 58 48z"></path></svg>